# xmcd
#
# Track frame offsets: 
#        150
#        11702
#        35498
#        48499
#        68743
#        84692
#        96444
#        115743
#        134018
#        145782
#
# Disc length: 2189 seconds
#
# Revision: 0
# Processed by: cddbd v1.5.2PL0 Copyright (c) Steve Scherf et al.
# Submitted via: ExactAudioCopy v0.99pb4
#
DISCID=8d088b0a
DTITLE=Hank Williams, Jr. - Strong Stuff
DYEAR=1983
DGENRE=Country Rock
TTITLE0=Gonna Go Huntin' Tonight
TTITLE1=La Grange
TTITLE2=A Whole Lot of Hank
TTITLE3=Make In the Shade
TTITLE4=Leave Them Boys Alone
TTITLE5=The Girl On the Front Row At Fort Worth
TTITLE6=The Homecoming Queen
TTITLE7=Blue Jean Blues
TTITLE8=Twodot Montana
TTITLE9=In the Arms of Cocaine
EXTD=
EXTT0=
EXTT1=
EXTT2=
EXTT3=
EXTT4=
EXTT5=
EXTT6=
EXTT7=
EXTT8=
EXTT9=
PLAYORDER=
